<?xml version="1.0" encoding="UTF-8"?>
<svg id="_Слой_1" data-name="Слой 1" xmlns="http://www.w3.org/2000/svg" xmlns:xlink="http://www.w3.org/1999/xlink" viewBox="0 0 1390.5 263.25">
  <defs>
    <style>
      .cls-1 {
        fill: url(#_Безымянный_градиент_112-8);
      }

      .cls-2 {
        fill: url(#_Безымянный_градиент_112);
      }

      .cls-3 {
        fill: url(#_Безымянный_градиент_112-4);
      }

      .cls-4 {
        fill: url(#_Безымянный_градиент_112-9);
      }

      .cls-5 {
        fill: url(#_Безымянный_градиент_112-3);
      }

      .cls-6 {
        fill: url(#_Безымянный_градиент_112-7);
      }

      .cls-7 {
        fill: url(#_Безымянный_градиент_112-5);
      }

      .cls-8 {
        fill: url(#_Безымянный_градиент_112-2);
      }

      .cls-9 {
        fill: url(#_Безымянный_градиент_112-6);
      }
    </style>
    <linearGradient id="_Безымянный_градиент_112" data-name="Безымянный градиент 112" x1="1054.6" y1="-162.88" x2="1047.85" y2="231.99" gradientUnits="userSpaceOnUse">
      <stop offset="0" stop-color="#cd9941"/>
      <stop offset=".2" stop-color="#e2b96a"/>
      <stop offset=".45" stop-color="#b08930"/>
      <stop offset=".76" stop-color="#dfb464"/>
      <stop offset="1" stop-color="#cd9941"/>
    </linearGradient>
    <linearGradient id="_Безымянный_градиент_112-2" data-name="Безымянный градиент 112" x1="625.42" y1="-170.22" x2="618.67" y2="224.65" xlink:href="#_Безымянный_градиент_112"/>
    <linearGradient id="_Безымянный_градиент_112-3" data-name="Безымянный градиент 112" x1="476.22" y1="-172.77" x2="469.47" y2="222.1" xlink:href="#_Безымянный_градиент_112"/>
    <linearGradient id="_Безымянный_градиент_112-4" data-name="Безымянный градиент 112" x1="1193.75" y1="-160.51" x2="1187" y2="234.37" xlink:href="#_Безымянный_градиент_112"/>
    <linearGradient id="_Безымянный_градиент_112-5" data-name="Безымянный градиент 112" x1="893.88" y1="-165.63" x2="887.13" y2="229.24" xlink:href="#_Безымянный_градиент_112"/>
    <linearGradient id="_Безымянный_градиент_112-6" data-name="Безымянный градиент 112" x1="212.17" y1="-177.28" x2="205.42" y2="217.59" xlink:href="#_Безымянный_градиент_112"/>
    <linearGradient id="_Безымянный_градиент_112-7" data-name="Безымянный градиент 112" x1="341.43" y1="-175.08" x2="334.68" y2="219.8" xlink:href="#_Безымянный_градиент_112"/>
    <linearGradient id="_Безымянный_градиент_112-8" data-name="Безымянный градиент 112" x1="763.39" y1="-167.86" x2="756.64" y2="227.01" xlink:href="#_Безымянный_градиент_112"/>
    <linearGradient id="_Безымянный_градиент_112-9" data-name="Безымянный градиент 112" x1="620.27" y1="-170.31" x2="613.52" y2="224.57" xlink:href="#_Безымянный_градиент_112"/>
  </defs>
  <path class="cls-2" d="m1087.29,175.64c-5.75-11.87-11.19-23.07-19.39-30.83-3.04-2.88-6.5-5.2-10.95-7.34,10.88-2.16,22.4-6.18,29.61-17.07,8.32-12.55,9.58-28.02,3.37-41.37-6.04-12.97-17.83-21.37-32.37-23.05-11.27-1.3-22.34-1.16-33.05-1.03-5.68.07-11.55.14-17.46,0-10.16-.16-23.17-.24-27.49.3l-1.31.17.54,1.2c.8,1.79,2.71,2.76,4.72,3.8,2.67,1.37,5.43,2.79,5.99,6.18,1.07,6.44,1.04,13.97,1.01,20.62,0,1.08,0,2.15,0,3.2l-.02,79.63c0,1.89.05,4.12.1,6.47.23,10.22.55,24.22-2.84,31.77-.3.66-1.85,1.53-3.23,2.3-2.07,1.16-4.21,2.35-5.02,4.08l-.42.91.92.4c2.28,1,46.53,1.11,49.32.13l.67-.24-.05-1.86-.31-.28c-1.9-1.73-3.61-2.77-4.98-3.61-3.62-2.2-5.43-3.31-5.61-14.08-.24-14.15-.18-28.68-.13-42.73.02-4.1.03-8.19.04-12.27,6.89-.52,12.14.03,16.76,3.93,6.91,5.83,17.81,27.14,25.77,42.69,2.63,5.14,4.9,9.58,6.62,12.67.24.45.52,1.01.85,1.64,3.33,6.5,7.2,13.48,10.94,13.99,4.89.67,10.97.86,17.11.86,4.56,0,9.14-.11,13.3-.2,2.27-.05,4.44-.1,6.43-.13l3.97-.06-3.54-1.79c-14.51-7.31-22.32-23.42-29.88-39Zm-33.46-50.35c-11.51,7.58-24.59,6.84-34.89,5.2l-.03-42.19c0-1.47-.03-3.25-.05-5.18-.08-5.96-.17-13.32.21-17.72.58-.32,1.13-.34,2.01-.38.33-.01.69-.03,1.09-.06,5.35-.31,10.83-.41,16.28-.29,11.29.24,20.15,6.84,24.32,18.09,5.46,14.76,1.62,33.02-8.94,42.53Z"/>
  <path class="cls-8" d="m655.23,55.9l-.8.53.52.81c.93,1.43,2.67,2.35,4.51,3.32,1.97,1.04,4,2.11,4.95,3.78,6.15,10.82,5.74,28.17,5.41,42.11-.06,2.59-.12,5.03-.13,7.32-.08,19.43-.3,39.21-.67,58.86-17.23-23.46-34.4-47.46-51.06-71.38l-20.23-29.17c-.81-1.16-1.69-2.47-2.63-3.84-3.03-4.45-6.46-9.5-9.26-12.87l-.29-.35-27.54-.06c-3.85,0-10.29-.03-12.59.34l-1.19.19.43,1.12c.73,1.92,1.81,2.38,2.94,2.88.48.21.97.42,1.53.78,11.77,7.44,11.43,26.49,11.18,40.4-.04,2.02-.07,3.94-.07,5.73l-.1,35.25c-.03,4.14,0,8.42.02,12.56.08,15.46.17,31.45-2.29,46.31-1.25,7.54-7.17,10.26-13.44,13.13-.5.23-.99.46-1.49.69l-3.1,1.44,3.4.41c2.12.25,38.93,1.14,41.39-.3l.83-.48-.47-.84c-.86-1.54-2.54-2.49-4.31-3.49-2.62-1.49-5.6-3.17-6.72-7.18-3.67-13.11-3.36-28.22-3.06-42.84.06-3.04.12-5.91.14-8.76.25-21.69.39-43.67.41-65.38l59.52,83.99,19.79,27.98c.38.53.92,1.34,1.58,2.32,6.11,9.1,10.42,14.84,13.06,15.29.77.13,1.56.2,2.35.2.06,0,.11,0,.17,0l12.37-.11.02-.95c.3-14.96.2-30.23.1-45-.11-17-.23-34.57.27-51.79.14-4.97.06-10.07-.01-14.99-.13-8.63-.27-17.54.77-26.13,1.65-13.64,4.98-15.22,16-20.46l3.09-1.47-3.4-.38c-3.2-.36-39.29-1.27-41.89.47Z"/>
  <path class="cls-5" d="m454.7,206.44c-.2-17.06-.25-34.32-.14-51.32v-18.48s.18-.01.18-.01c19.45-1.17,37.82-2.28,50.69,13.98l1.87,2.36-.13-3.01c-.38-8.96-.28-19.56-.18-28.9.02-2.05.04-4.05.06-6l.02-2.54-1.71,1.87c-8.89,9.71-19.67,12.09-33.12,12.68-5.86.25-11.79.22-17.66-.1,0-6.45-.02-12.93-.04-19.42-.04-13.96-.09-28.38.06-42.45h.21c32.49-1.25,45.94-1.76,67.13,26.4l2.03,2.69-.28-3.36c-.87-10.52-1.73-25.39-1.7-34.88v-.98s-71.99,0-71.99,0c-1.57,0-3.92-.02-6.67-.05-9.21-.09-23.13-.23-27.61.33l-1.3.16.52,1.2c.89,2.05,2.92,3.05,4.89,4.03,2.45,1.22,4.98,2.48,5.86,5.78,1.69,6.34,1.3,30.33,1.08,44.66-.06,4.01-.12,7.47-.12,9.76v49.34c-.02,1.65-.02,3.3-.01,4.95,0,7.66,0,15.58-.22,23.33-.13,4.64-1.29,10.62-6.05,12.68-.36.16-.76.3-1.16.44-1.36.49-2.89,1.05-3.79,2.33l-.28.39.6,1.93.66.05c4.81.35,10.7.45,16.77.45,4.11,0,8.3-.05,12.28-.09,3.71-.04,7.2-.07,10.36-.08l69.93-.03.11-.85c1.11-8.66,1.71-24.3,2.11-34.65l.27-6.81-1.88,2.55c-21.45,29.07-35.39,32.74-71.62,29.66Z"/>
  <path class="cls-3" d="m1244.5,176.55c-21.25,30.41-38.57,32.6-72.66,29.87-.23-17.5-.28-35.23-.16-52.71v-17.06s.16,0,.16,0c18.84-1.21,38.32-2.46,51.09,13.82l1.74,2.22.04-40.33-1.71,1.96c-12.64,14.48-34.79,13.55-51.3,12.66,0-6.34-.05-12.91-.09-19.27-.09-13.94-.19-28.35.08-41.96,32.48-3.61,50.28-.56,69.2,26.16l2.19,3.1-.43-3.77c-1.01-8.92-1.76-26.33-1.85-34.89v-1s-1.01.04-1.01.04c-16.19.63-32.42.41-48.11.21-7.71-.1-15.68-.21-23.6-.21-2.9,0-6.59-.1-10.5-.21-8.66-.23-18.48-.5-24.64.12l-1.32.13.52,1.22c.75,1.75,2.67,2.76,4.7,3.83,2.65,1.39,5.38,2.83,5.91,5.95,1.08,6.4,1.05,13.91,1.03,20.54,0,1.04,0,2.06,0,3.07v31.82s-.02,48.52-.02,48.52c0,2.35.04,4.75.08,7.29.15,9.42.32,20.1-1.79,28.75-.51,2.11-2.85,3.46-5.11,4.76-1.93,1.11-3.75,2.16-4.38,3.73l-.49,1.22,1.31.11c4.83.41,10.93.52,17.22.52,3.99,0,8.07-.05,11.94-.09,3.41-.04,6.63-.07,9.48-.07l71.81-.03.07-.89c.77-9.2,1.3-18.83,1.8-28.15.19-3.48.38-6.94.58-10.35l.2-3.44-1.97,2.82Z"/>
  <path class="cls-7" d="m960.69,55.41c-2.78-.52-9.5-.47-13.95-.43-.85,0-1.61.01-2.22.01-1.11,0-2.46-.01-3.97-.02-6.79-.06-16.1-.14-20.57.54l-3.33.51,3.08,1.35c12.89,5.65,14.25,7.61,16.18,23.24,1.08,8.74,1.05,17.84,1.02,26.65-.02,4.79-.04,9.74.13,14.54,0,1.92.02,3.85.03,5.79.07,13.37.14,27.2-1.25,40.45-1.44,13.68-8.4,30.15-23.61,35.35-22.21,7.59-41.37-.14-48.81-19.68-2.11-5.71-3.45-11.67-3.97-17.75-1.42-14.96-1.96-94.78.92-101.05,1.14-2.47,3.14-3.41,5.08-4.31,1.66-.77,3.37-1.57,4.31-3.31l.3-.55-1.05-1.4-.43-.04c-5.71-.5-12.47-.41-19.01-.33-4.1.05-7.97.11-11.56.02-3.53-.09-15.54-.1-18.04.32l-1.22.21.48,1.13c.72,1.7,2.54,2.58,4.46,3.5,2.62,1.26,5.33,2.57,6.09,6.04,1.35,6.24,1.26,13.75,1.18,20.39-.02,1.47-.04,2.92-.04,4.32l-.04,45.5c0,2.96-.04,5.85-.08,8.63-.23,16.05-.43,29.92,7.06,46.53,8.62,19.12,31.72,27.34,52.06,27.34,1.23,0,2.46-.03,3.66-.09,19.01-.94,41.84-9.42,48.91-30.4,7-20.8,6.35-45.63,5.72-69.64-.39-14.77-.75-28.72.54-41.75.73-7.29,2.48-12.29,5.19-14.85.6-.57,1.83-1.14,3.01-1.7,2.3-1.08,4.68-2.19,4.58-4.15l-.04-.77-.76-.14Z"/>
  <path class="cls-9" d="m261.82,56.01v-.97s-74.66-.04-74.66-.04h-.01c-1.62,0-4.03-.03-6.85-.06-9.03-.1-22.68-.26-27.27.33l-1.5.19.8,1.29c1.59,2.57,3.67,3.41,5.5,4.15,3.29,1.33,6.39,2.58,6.45,15.21.11,22.19.1,44.78.09,66.64l-.02,39.62c0,1.08.03,2.35.06,3.7.19,7.74.47,19.43-4.43,23.5-.56.47-1.45.93-2.38,1.41-1.58.82-3.37,1.75-4.34,3.13l-.29.41.59,1.65.59.08c2.16.28,6.36.42,12.55.42,2.8,0,6.02-.03,9.63-.09,3.22-.05,6.75-.01,10.49.03,6.75.07,13.73.15,19.48-.31l3.16-.25-2.76-1.57c-1.4-.8-2.86-1.44-4.27-2.05-3.99-1.75-7.43-3.25-8.38-7.68-1.55-7.25-1.46-16.44-1.38-24.55.02-1.78.03-3.51.03-5.17v-38.47s.6-.03.6-.03c14.4-.72,32.32-1.63,43.8,8.65.63.57,1.17,1.14,1.73,1.74.75.79,1.52,1.61,2.53,2.43l.82.66.6-.87c.8-1.17.77-2.26.73-3.42,0-.3-.02-.62-.02-.97l.05-32.05-1.69,1.77c-9.44,9.93-21.19,12.22-35.93,12.61-4.36.08-8.78.07-13.16-.03-.01-5.83-.07-11.73-.12-17.97-.13-14.54-.26-29.57.13-43.35,31.76-3.47,51.25-.22,69.11,26.37l2.28,3.4-.51-4.06c-1-8.02-1.76-26.34-1.85-35.42Z"/>
  <path class="cls-6" d="m391.71,177.19c-1.21,1.18-2.7,3.04-4.27,5.01-1.35,1.69-2.74,3.43-3.91,4.66-16,16.87-24.89,20.69-47.55,20.37-5.21-.1-10.48-.42-15.66-.93.27-6.5.16-13.91.05-21.08-.06-3.76-.11-7.32-.11-10.71v-66.61c.01-2.76,0-5.53-.02-8.3-.06-9.63-.12-19.59.59-29.31.55-7.47,3.34-8.68,7.56-10.51,1.62-.7,3.45-1.5,5.37-2.74l2.51-1.62-2.98-.17c-6.4-.36-13.36-.32-20.09-.28-4.07.03-8.28.05-12.22-.02-3.36-.06-16.57-.17-19.7.37l-1.21.21.5,1.2c.03.08.06.15.1.23.88,1.9,2.78,2.78,4.63,3.63,2.46,1.13,5.01,2.3,5.87,5.94,1.77,7.44,1.76,132.68-.01,138.15-.96,2.96-3.03,5.4-5.67,6.67-.89.43-1.84.82-2.75,1.2-1.28.53-2.61,1.09-3.87,1.77l-2.67,1.45,3.02.38c4.02.5,10.85.63,17.86.63,4.31,0,8.69-.05,12.53-.09,2.96-.03,5.61-.06,7.67-.06l74.94-.04.05-.92c.15-2.79.33-5.75.51-8.78.53-8.85,1.08-18,1.12-25.96l.03-2.98-1.56-1.38-.65.63Z"/>
  <path class="cls-1" d="m752.56,55.33l-1.2.21.47,1.13c.64,1.52,2.46,2.48,4.58,3.59,2.7,1.42,5.76,3.02,5.93,5.84,1.52,25.25,1.24,51.25.98,76.39-.13,12.32-.26,25.07-.18,37.53.06,9.3-.67,18.79-10.08,23.66-22.96,8.21-32.55-8.11-40.26-21.22-.61-1.04-1.21-2.06-1.8-3.04l-1.8-2.99-.11,47.26,3.91-6.13c1.95-3.25,1.99-4.69,5.06-4.76,12.36,10.33,37.69,10.45,54.47.19,19.87-12.15,19.38-35.66,18.94-56.4-.06-3.01-.12-5.85-.12-8.65l.05-54.72c0-1.79-.02-3.6-.04-5.42-.08-6.62-.16-13.47.86-19.93.91-5.75,4.42-7.15,8.86-8.92,1.26-.5,2.57-1.02,3.87-1.67l2.94-1.47-3.26-.38c-4.66-.54-47.89-.85-52.06-.12Z"/>
  <path class="cls-4" d="m575.05,43.54l1.72-1.09c1.13-.73,2.44-1.9,3.18-2.68,6.16-6.45,16.12-8.9,25.4-6.25,1.96.56,3.94,1.16,5.9,1.75,12.7,3.82,25.83,7.78,35.2,2.23,5.69-3.37,9.48-9.84,11.59-19.78.39-1.85,1.04-4.94.58-7.41l-.4-2.14-1.33,1.73c-11.77,15.32-24.68,10.92-38.34,6.27-12.85-4.38-26.13-8.9-37.79,4.71-5.1,5.95-5.77,15.66-5.72,20.92l.02,1.76Z"/>
</svg>